# xmcd
#
# Track frame offsets: 
#        182
#        16230
#        29112
#        46132
#        58737
#        69877
#        82162
#        94220
#        106790
#        117877
#
# Disc length: 1732 seconds
#
# Revision: 2
# Processed by: cddbd v1.5.2PL0 Copyright (c) Steve Scherf et al.
# Submitted via: ExactAudioCopy v0.99pb5
#
DISCID=7e06c20a
DTITLE=Bill Anderson - Greatest Songs
DYEAR=1900
DGENRE=Country
TTITLE0=Mama Sang A Song
TTITLE1=Still
TTITLE2=The Corner Of My Life
TTITLE3=Po' Folks
TTITLE4=I Get The Fever
TTITLE5=Tips Of My Fingers
TTITLE6=Three A.M.
TTITLE7=I Love You Drops
TTITLE8=Wild Weekend
TTITLE9=Bright Lights And Country Music
EXTD=
EXTT0=
EXTT1=
EXTT2=
EXTT3=
EXTT4=
EXTT5=
EXTT6=
EXTT7=
EXTT8=
EXTT9=
PLAYORDER=
